<svg width="25" height="25" viewBox="0 0 25 25" fill="none" xmlns="http://www.w3.org/2000/svg">
<mask id="mask0_2032_141204" style="mask-type:alpha" maskUnits="userSpaceOnUse" x="0" y="0" width="25" height="25">
<rect x="0.75" y="0.5" width="24" height="24" fill="#D9D9D9"/>
</mask>
<g mask="url(#mask0_2032_141204)">
<path d="M11.75 9.5V6.5H8.75V4.5H11.75V1.5H13.75V4.5H16.75V6.5H13.75V9.5H11.75ZM7.75 22.5C7.2 22.5 6.72917 22.3042 6.3375 21.9125C5.94583 21.5208 5.75 21.05 5.75 20.5C5.75 19.95 5.94583 19.4792 6.3375 19.0875C6.72917 18.6958 7.2 18.5 7.75 18.5C8.3 18.5 8.77083 18.6958 9.1625 19.0875C9.55417 19.4792 9.75 19.95 9.75 20.5C9.75 21.05 9.55417 21.5208 9.1625 21.9125C8.77083 22.3042 8.3 22.5 7.75 22.5ZM17.75 22.5C17.2 22.5 16.7292 22.3042 16.3375 21.9125C15.9458 21.5208 15.75 21.05 15.75 20.5C15.75 19.95 15.9458 19.4792 16.3375 19.0875C16.7292 18.6958 17.2 18.5 17.75 18.5C18.3 18.5 18.7708 18.6958 19.1625 19.0875C19.5542 19.4792 19.75 19.95 19.75 20.5C19.75 21.05 19.5542 21.5208 19.1625 21.9125C18.7708 22.3042 18.3 22.5 17.75 22.5ZM1.75 4.5V2.5H5.025L9.275 11.5H16.275L20.175 4.5H22.45L18.05 12.45C17.8667 12.7833 17.6208 13.0417 17.3125 13.225C17.0042 13.4083 16.6667 13.5 16.3 13.5H8.85L7.75 15.5H19.75V17.5H7.75C7 17.5 6.42917 17.175 6.0375 16.525C5.64583 15.875 5.63333 15.2167 6 14.55L7.35 12.1L3.75 4.5H1.75Z" fill="black" fill-opacity="0.6"/>
</g>
</svg>
