<svg width="36" height="37" viewBox="0 0 36 37" fill="none" xmlns="http://www.w3.org/2000/svg">
<mask id="mask0_2936_10888" style="mask-type:alpha" maskUnits="userSpaceOnUse" x="0" y="0" width="36" height="37">
<rect y="0.5" width="36" height="36" fill="#D9D9D9"/>
</mask>
<g mask="url(#mask0_2936_10888)">
<path d="M18 33.5C15.925 33.5 13.975 33.1062 12.15 32.3187C10.325 31.5312 8.7375 30.4625 7.3875 29.1125C6.0375 27.7625 4.96875 26.175 4.18125 24.35C3.39375 22.525 3 20.575 3 18.5C3 16.425 3.39375 14.475 4.18125 12.65C4.96875 10.825 6.0375 9.2375 7.3875 7.8875C8.7375 6.5375 10.325 5.46875 12.15 4.68125C13.975 3.89375 15.925 3.5 18 3.5C20.075 3.5 22.025 3.89375 23.85 4.68125C25.675 5.46875 27.2625 6.5375 28.6125 7.8875C29.9625 9.2375 31.0312 10.825 31.8187 12.65C32.6062 14.475 33 16.425 33 18.5V20.675C33 22.15 32.4938 23.4062 31.4813 24.4438C30.4688 25.4813 29.225 26 27.75 26C26.875 26 26.05 25.8125 25.275 25.4375C24.5 25.0625 23.85 24.525 23.325 23.825C22.6 24.55 21.7812 25.0938 20.8688 25.4562C19.9563 25.8188 19 26 18 26C15.925 26 14.1562 25.2688 12.6938 23.8063C11.2312 22.3438 10.5 20.575 10.5 18.5C10.5 16.425 11.2312 14.6562 12.6938 13.1938C14.1562 11.7312 15.925 11 18 11C20.075 11 21.8438 11.7312 23.3063 13.1938C24.7688 14.6562 25.5 16.425 25.5 18.5V20.675C25.5 21.325 25.7125 21.875 26.1375 22.325C26.5625 22.775 27.1 23 27.75 23C28.4 23 28.9375 22.775 29.3625 22.325C29.7875 21.875 30 21.325 30 20.675V18.5C30 15.15 28.8375 12.3125 26.5125 9.9875C24.1875 7.6625 21.35 6.5 18 6.5C14.65 6.5 11.8125 7.6625 9.4875 9.9875C7.1625 12.3125 6 15.15 6 18.5C6 21.85 7.1625 24.6875 9.4875 27.0125C11.8125 29.3375 14.65 30.5 18 30.5H25.5V33.5H18ZM18 23C19.25 23 20.3125 22.5625 21.1875 21.6875C22.0625 20.8125 22.5 19.75 22.5 18.5C22.5 17.25 22.0625 16.1875 21.1875 15.3125C20.3125 14.4375 19.25 14 18 14C16.75 14 15.6875 14.4375 14.8125 15.3125C13.9375 16.1875 13.5 17.25 13.5 18.5C13.5 19.75 13.9375 20.8125 14.8125 21.6875C15.6875 22.5625 16.75 23 18 23Z" fill="black" fill-opacity="0.6"/>
</g>
</svg>
