<svg width="73" height="73" viewBox="0 0 73 73" fill="none" xmlns="http://www.w3.org/2000/svg">
<rect x="0.5" y="0.5" width="72" height="72" rx="36" fill="#999999"/>
<mask id="mask0_3762_84752" style="mask-type:alpha" maskUnits="userSpaceOnUse" x="18" y="18" width="37" height="37">
<rect x="18.5" y="18.5" width="36" height="36" fill="#D9D9D9"/>
</mask>
<g mask="url(#mask0_3762_84752)">
<path d="M20 48.5V42.5C20 41.775 20.2562 41.1562 20.7687 40.6437C21.2812 40.1312 21.9 39.875 22.625 39.875H27.9125C28.3375 39.875 28.7438 39.9813 29.1313 40.1938C29.5188 40.4063 29.85 40.7 30.125 41.075C30.85 42.125 31.775 42.9375 32.9 43.5125C34.025 44.0875 35.225 44.375 36.5 44.375C37.775 44.375 38.975 44.0875 40.1 43.5125C41.225 42.9375 42.1625 42.125 42.9125 41.075C43.1875 40.7 43.5125 40.4063 43.8875 40.1938C44.2625 39.9813 44.6625 39.875 45.0875 39.875H50.375C51.1 39.875 51.7188 40.1312 52.2313 40.6437C52.7438 41.1562 53 41.775 53 42.5V48.5H43.25V44.0375C42.35 44.8625 41.3188 45.5 40.1562 45.95C38.9937 46.4 37.775 46.625 36.5 46.625C35.225 46.625 34.0125 46.4 32.8625 45.95C31.7125 45.5 30.675 44.8625 29.75 44.0375V48.5H20ZM36.5 42.125C35.625 42.125 34.7813 41.9188 33.9688 41.5063C33.1562 41.0938 32.5 40.525 32 39.8C31.6 39.225 31.1187 38.7625 30.5562 38.4125C29.9937 38.0625 29.3875 37.825 28.7375 37.7C29.4625 36.95 30.6 36.375 32.15 35.975C33.7 35.575 35.15 35.375 36.5 35.375C37.85 35.375 39.3063 35.575 40.8688 35.975C42.4313 36.375 43.575 36.95 44.3 37.7C43.65 37.825 43.0438 38.0625 42.4813 38.4125C41.9188 38.7625 41.4375 39.225 41.0375 39.8C40.5375 40.525 39.8813 41.0938 39.0688 41.5063C38.2563 41.9188 37.4 42.125 36.5 42.125ZM24.5 37.25C23.375 37.25 22.4063 36.8438 21.5938 36.0312C20.7812 35.2187 20.375 34.25 20.375 33.125C20.375 31.975 20.7812 31 21.5938 30.2C22.4063 29.4 23.375 29 24.5 29C25.65 29 26.625 29.4 27.425 30.2C28.225 31 28.625 31.975 28.625 33.125C28.625 34.25 28.225 35.2187 27.425 36.0312C26.625 36.8438 25.65 37.25 24.5 37.25ZM48.5 37.25C47.375 37.25 46.4063 36.8438 45.5938 36.0312C44.7812 35.2187 44.375 34.25 44.375 33.125C44.375 31.975 44.7812 31 45.5938 30.2C46.4063 29.4 47.375 29 48.5 29C49.65 29 50.625 29.4 51.425 30.2C52.225 31 52.625 31.975 52.625 33.125C52.625 34.25 52.225 35.2187 51.425 36.0312C50.625 36.8438 49.65 37.25 48.5 37.25ZM36.5 32.75C35.375 32.75 34.4063 32.3438 33.5938 31.5312C32.7812 30.7187 32.375 29.75 32.375 28.625C32.375 27.475 32.7812 26.5 33.5938 25.7C34.4063 24.9 35.375 24.5 36.5 24.5C37.65 24.5 38.625 24.9 39.425 25.7C40.225 26.5 40.625 27.475 40.625 28.625C40.625 29.75 40.225 30.7187 39.425 31.5312C38.625 32.3438 37.65 32.75 36.5 32.75Z" fill="white"/>
</g>
</svg>
