<svg width="73" height="73" viewBox="0 0 73 73" fill="none" xmlns="http://www.w3.org/2000/svg">
<rect x="0.5" y="0.5" width="72" height="72" rx="36" fill="#999999"/>
<mask id="mask0_3762_84758" style="mask-type:alpha" maskUnits="userSpaceOnUse" x="18" y="18" width="37" height="37">
<rect x="18.5" y="18.5" width="36" height="36" fill="#D9D9D9"/>
</mask>
<g mask="url(#mask0_3762_84758)">
<path d="M27.275 53C26.0875 53 25.0781 52.5844 24.2469 51.7531C23.4156 50.9219 23 49.9125 23 48.725C23 47.5375 23.4156 46.5281 24.2469 45.6969C25.0781 44.8656 26.0875 44.45 27.275 44.45C27.625 44.45 27.9313 44.4813 28.1938 44.5438C28.4563 44.6063 28.725 44.7 29 44.825L32.1875 40.85C31.7125 40.275 31.35 39.6188 31.1 38.8813C30.85 38.1438 30.7875 37.375 30.9125 36.575L26.375 35.0375C26 35.6625 25.5063 36.15 24.8938 36.5C24.2813 36.85 23.575 37.025 22.775 37.025C21.5875 37.025 20.5781 36.6094 19.7469 35.7781C18.9156 34.9469 18.5 33.9375 18.5 32.75C18.5 31.5625 18.9156 30.5531 19.7469 29.7219C20.5781 28.8906 21.5875 28.475 22.775 28.475C23.9625 28.475 24.9719 28.8906 25.8031 29.7219C26.6344 30.5531 27.05 31.5625 27.05 32.75V32.9L31.625 34.475C32.075 33.675 32.6188 33.0625 33.2563 32.6375C33.8938 32.2125 34.6 31.9125 35.375 31.7375V26.9C34.4 26.625 33.6313 26.0875 33.0688 25.2875C32.5063 24.4875 32.225 23.65 32.225 22.775C32.225 21.5875 32.6406 20.5781 33.4719 19.7469C34.3031 18.9156 35.3125 18.5 36.5 18.5C37.6875 18.5 38.6969 18.9156 39.5281 19.7469C40.3594 20.5781 40.775 21.5875 40.775 22.775C40.775 23.65 40.4875 24.4875 39.9125 25.2875C39.3375 26.0875 38.575 26.625 37.625 26.9V31.7375C38.4 31.9125 39.1125 32.2125 39.7625 32.6375C40.4125 33.0625 40.9625 33.675 41.4125 34.475L45.95 32.9V32.75C45.95 31.5625 46.3656 30.5531 47.1969 29.7219C48.0281 28.8906 49.0375 28.475 50.225 28.475C51.4125 28.475 52.4219 28.8906 53.2531 29.7219C54.0844 30.5531 54.5 31.5625 54.5 32.75C54.5 33.9375 54.0844 34.9469 53.2531 35.7781C52.4219 36.6094 51.4125 37.025 50.225 37.025C49.425 37.025 48.7125 36.85 48.0875 36.5C47.4625 36.15 46.975 35.6625 46.625 35.0375L42.0875 36.575C42.2125 37.375 42.1563 38.1438 41.9188 38.8813C41.6813 39.6188 41.3125 40.275 40.8125 40.85L44 44.825C44.275 44.7 44.5438 44.6063 44.8063 44.5438C45.0688 44.4813 45.3695 44.45 45.7086 44.45C46.9195 44.45 47.9375 44.8656 48.7625 45.6969C49.5875 46.5281 50 47.5375 50 48.725C50 49.9125 49.5844 50.9219 48.7531 51.7531C47.9219 52.5844 46.9125 53 45.725 53C44.5375 53 43.5281 52.5844 42.6969 51.7531C41.8656 50.9219 41.45 49.9125 41.45 48.725C41.45 48.225 41.5187 47.775 41.6562 47.375C41.7938 46.975 41.9875 46.5875 42.2375 46.2125L39.05 42.2375C38.2468 42.6625 37.3898 42.875 36.4789 42.875C35.568 42.875 34.7125 42.6625 33.9125 42.2375L30.7625 46.25C31.0125 46.625 31.2062 47.0063 31.3438 47.3938C31.4813 47.7813 31.55 48.225 31.55 48.725C31.55 49.9125 31.1344 50.9219 30.3031 51.7531C29.4719 52.5844 28.4625 53 27.275 53ZM22.7763 34.775C23.3504 34.775 23.8313 34.5808 24.2188 34.1924C24.6062 33.8041 24.8 33.3228 24.8 32.7487C24.8 32.1746 24.6058 31.6938 24.2174 31.3063C23.8291 30.9188 23.3478 30.725 22.7737 30.725C22.1996 30.725 21.7188 30.9192 21.3313 31.3076C20.9438 31.6959 20.75 32.1772 20.75 32.7513C20.75 33.3254 20.9442 33.8063 21.3326 34.1938C21.7209 34.5813 22.2022 34.775 22.7763 34.775ZM27.2763 50.75C27.8504 50.75 28.3313 50.5558 28.7188 50.1674C29.1062 49.7791 29.3 49.2978 29.3 48.7237C29.3 48.1496 29.1058 47.6687 28.7174 47.2812C28.3291 46.8938 27.8478 46.7 27.2737 46.7C26.6996 46.7 26.2188 46.8942 25.8313 47.2826C25.4438 47.6709 25.25 48.1522 25.25 48.7263C25.25 49.3004 25.4442 49.7813 25.8326 50.1688C26.2209 50.5563 26.7022 50.75 27.2763 50.75ZM36.5013 24.8C37.0754 24.8 37.5563 24.6058 37.9438 24.2174C38.3313 23.8291 38.525 23.3478 38.525 22.7737C38.525 22.1996 38.3308 21.7188 37.9424 21.3313C37.5541 20.9438 37.0728 20.75 36.4987 20.75C35.9246 20.75 35.4438 20.9442 35.0563 21.3326C34.6688 21.7209 34.475 22.2022 34.475 22.7763C34.475 23.3504 34.6692 23.8313 35.0576 24.2188C35.4459 24.6062 35.9272 24.8 36.5013 24.8ZM36.5187 40.625C37.4562 40.625 38.25 40.2938 38.9 39.6313C39.55 38.9688 39.875 38.1688 39.875 37.2313C39.875 36.2938 39.5488 35.5 38.8963 34.85C38.2438 34.2 37.445 33.875 36.5 33.875C35.575 33.875 34.7813 34.2012 34.1188 34.8537C33.4563 35.5062 33.125 36.305 33.125 37.25C33.125 38.175 33.4563 38.9688 34.1188 39.6313C34.7813 40.2938 35.5812 40.625 36.5187 40.625ZM45.7263 50.75C46.3004 50.75 46.7813 50.5558 47.1688 50.1674C47.5563 49.7791 47.75 49.2978 47.75 48.7237C47.75 48.1496 47.5558 47.6687 47.1674 47.2812C46.7791 46.8938 46.2978 46.7 45.7237 46.7C45.1496 46.7 44.6687 46.8942 44.2812 47.2826C43.8938 47.6709 43.7 48.1522 43.7 48.7263C43.7 49.3004 43.8942 49.7813 44.2826 50.1688C44.6709 50.5563 45.1522 50.75 45.7263 50.75ZM50.2263 34.775C50.8004 34.775 51.2813 34.5808 51.6688 34.1924C52.0563 33.8041 52.25 33.3228 52.25 32.7487C52.25 32.1746 52.0558 31.6938 51.6674 31.3063C51.2791 30.9188 50.7978 30.725 50.2237 30.725C49.6496 30.725 49.1687 30.9192 48.7812 31.3076C48.3938 31.6959 48.2 32.1772 48.2 32.7513C48.2 33.3254 48.3942 33.8063 48.7826 34.1938C49.1709 34.5813 49.6522 34.775 50.2263 34.775Z" fill="white"/>
</g>
</svg>
