<svg width="42" height="43" viewBox="0 0 42 43" fill="none" xmlns="http://www.w3.org/2000/svg">
<g id="facebook 1" clip-path="url(#clip0_1218_8520)">
<path id="Vector" d="M42 22.117C42 10.4456 32.6008 0.989258 21 0.989258C9.39919 0.989258 0 10.4456 0 22.117C0 32.6622 7.67939 41.403 17.7188 42.9893V28.2245H12.3841V22.117H17.7188V17.4621C17.7188 12.1674 20.8518 9.24273 25.6505 9.24273C27.9486 9.24273 30.3518 9.65506 30.3518 9.65506V14.8518H27.7031C25.095 14.8518 24.2812 16.4807 24.2812 18.1513V22.117H30.1054L29.1739 28.2245H24.2812V42.9893C34.3206 41.403 42 32.6622 42 22.117Z" fill="#666666"/>
</g>
<defs>
<clipPath id="clip0_1218_8520">
<rect width="42" height="42" fill="white" transform="translate(0 0.989258)"/>
</clipPath>
</defs>
</svg>
