<svg width="42" height="43" viewBox="0 0 42 43" fill="none" xmlns="http://www.w3.org/2000/svg">
<g id="instagram 1">
<rect y="0.989258" width="42" height="42" rx="21" fill="#666666"/>
<path id="Vector" d="M21.0029 15.3232C17.3139 15.3232 14.3383 18.2994 14.3383 21.9893C14.3383 25.6791 17.3139 28.6553 21.0029 28.6553C24.6919 28.6553 27.6675 25.6791 27.6675 21.9893C27.6675 18.2994 24.6919 15.3232 21.0029 15.3232ZM21.0029 26.3231C18.619 26.3231 16.67 24.3795 16.67 21.9893C16.67 19.599 18.6132 17.6554 21.0029 17.6554C23.3926 17.6554 25.3358 19.599 25.3358 21.9893C25.3358 24.3795 23.3868 26.3231 21.0029 26.3231ZM29.4946 15.0505C29.4946 15.915 28.7986 16.6053 27.9401 16.6053C27.0759 16.6053 26.3856 15.9092 26.3856 15.0505C26.3856 14.1919 27.0817 13.4957 27.9401 13.4957C28.7986 13.4957 29.4946 14.1919 29.4946 15.0505ZM33.9086 16.6286C33.81 14.5458 33.3344 12.7008 31.8089 11.1808C30.2892 9.6608 28.4447 9.18506 26.3624 9.08063C24.2163 8.9588 17.7837 8.9588 15.6376 9.08063C13.5611 9.17926 11.7166 9.65499 10.1911 11.175C8.66559 12.695 8.19576 14.54 8.09136 16.6228C7.96955 18.7694 7.96955 25.2034 8.09136 27.35C8.18996 29.4327 8.66559 31.2777 10.1911 32.7977C11.7166 34.3177 13.5553 34.7935 15.6376 34.8979C17.7837 35.0197 24.2163 35.0197 26.3624 34.8979C28.4447 34.7993 30.2892 34.3235 31.8089 32.7977C33.3286 31.2777 33.8042 29.4327 33.9086 27.35C34.0305 25.2034 34.0305 18.7752 33.9086 16.6286ZM31.1361 29.6532C30.6837 30.7903 29.8078 31.6664 28.6651 32.1247C26.954 32.8035 22.8938 32.6469 21.0029 32.6469C19.112 32.6469 15.046 32.7977 13.3407 32.1247C12.2038 31.6722 11.3279 30.7961 10.8697 29.6532C10.1911 27.9417 10.3477 23.8806 10.3477 21.9893C10.3477 20.0979 10.1969 16.031 10.8697 14.3253C11.3221 13.1882 12.198 12.3121 13.3407 11.8538C15.0518 11.175 19.112 11.3317 21.0029 11.3317C22.8938 11.3317 26.9598 11.1808 28.6651 11.8538C29.802 12.3063 30.6779 13.1824 31.1361 14.3253C31.8147 16.0368 31.6581 20.0979 31.6581 21.9893C31.6581 23.8806 31.8147 27.9475 31.1361 29.6532Z" fill="white"/>
</g>
</svg>
