<svg width="36" height="37" viewBox="0 0 36 37" fill="none" xmlns="http://www.w3.org/2000/svg">
<mask id="mask0_2936_10883" style="mask-type:alpha" maskUnits="userSpaceOnUse" x="0" y="0" width="36" height="37">
<rect y="0.5" width="36" height="36" fill="#D9D9D9"/>
</mask>
<g mask="url(#mask0_2936_10883)">
<path d="M18 18.5C18.825 18.5 19.5313 18.2063 20.1188 17.6188C20.7063 17.0313 21 16.325 21 15.5C21 14.675 20.7063 13.9688 20.1188 13.3813C19.5313 12.7937 18.825 12.5 18 12.5C17.175 12.5 16.4688 12.7937 15.8813 13.3813C15.2937 13.9688 15 14.675 15 15.5C15 16.325 15.2937 17.0313 15.8813 17.6188C16.4688 18.2063 17.175 18.5 18 18.5ZM18 29.525C21.05 26.725 23.3125 24.1812 24.7875 21.8937C26.2625 19.6062 27 17.575 27 15.8C27 13.075 26.1313 10.8438 24.3937 9.10625C22.6562 7.36875 20.525 6.5 18 6.5C15.475 6.5 13.3438 7.36875 11.6062 9.10625C9.86875 10.8438 9 13.075 9 15.8C9 17.575 9.7375 19.6062 11.2125 21.8937C12.6875 24.1812 14.95 26.725 18 29.525ZM18 33.5C13.975 30.075 10.9688 26.8937 8.98125 23.9562C6.99375 21.0187 6 18.3 6 15.8C6 12.05 7.20625 9.0625 9.61875 6.8375C12.0313 4.6125 14.825 3.5 18 3.5C21.175 3.5 23.9688 4.6125 26.3813 6.8375C28.7938 9.0625 30 12.05 30 15.8C30 18.3 29.0063 21.0187 27.0187 23.9562C25.0312 26.8937 22.025 30.075 18 33.5Z" fill="black" fill-opacity="0.6"/>
</g>
</svg>
