<svg width="28" height="28" viewBox="0 0 28 28" fill="none" xmlns="http://www.w3.org/2000/svg">
<g id="Icons/Person">
<mask id="mask0_1806_14798" style="mask-type:alpha" maskUnits="userSpaceOnUse" x="0" y="0" width="28" height="28">
<rect id="Bounding box" width="28" height="28" fill="#D9D9D9"/>
</mask>
<g mask="url(#mask0_1806_14798)">
<path id="person" d="M14.0003 14C12.717 14 11.6184 13.5431 10.7045 12.6292C9.7906 11.7153 9.33366 10.6167 9.33366 9.33335C9.33366 8.05002 9.7906 6.95141 10.7045 6.03752C11.6184 5.12363 12.717 4.66669 14.0003 4.66669C15.2837 4.66669 16.3823 5.12363 17.2962 6.03752C18.21 6.95141 18.667 8.05002 18.667 9.33335C18.667 10.6167 18.21 11.7153 17.2962 12.6292C16.3823 13.5431 15.2837 14 14.0003 14ZM4.66699 23.3334V20.0667C4.66699 19.4056 4.83713 18.7979 5.17741 18.2438C5.51769 17.6896 5.96977 17.2667 6.53366 16.975C7.73921 16.3722 8.96421 15.9202 10.2087 15.6188C11.4531 15.3174 12.717 15.1667 14.0003 15.1667C15.2837 15.1667 16.5475 15.3174 17.792 15.6188C19.0364 15.9202 20.2614 16.3722 21.467 16.975C22.0309 17.2667 22.483 17.6896 22.8232 18.2438C23.1635 18.7979 23.3337 19.4056 23.3337 20.0667V23.3334H4.66699Z" fill="black"/>
</g>
</g>
</svg>
