<svg width="36" height="37" viewBox="0 0 36 37" fill="none" xmlns="http://www.w3.org/2000/svg">
<mask id="mask0_2936_10878" style="mask-type:alpha" maskUnits="userSpaceOnUse" x="0" y="0" width="36" height="37">
<rect y="0.5" width="36" height="36" fill="#D9D9D9"/>
</mask>
<g mask="url(#mask0_2936_10878)">
<path d="M22.95 25.55L25.05 23.45L19.5 17.9V11H16.5V19.1L22.95 25.55ZM18 33.5C15.925 33.5 13.975 33.1062 12.15 32.3187C10.325 31.5312 8.7375 30.4625 7.3875 29.1125C6.0375 27.7625 4.96875 26.175 4.18125 24.35C3.39375 22.525 3 20.575 3 18.5C3 16.425 3.39375 14.475 4.18125 12.65C4.96875 10.825 6.0375 9.2375 7.3875 7.8875C8.7375 6.5375 10.325 5.46875 12.15 4.68125C13.975 3.89375 15.925 3.5 18 3.5C20.075 3.5 22.025 3.89375 23.85 4.68125C25.675 5.46875 27.2625 6.5375 28.6125 7.8875C29.9625 9.2375 31.0312 10.825 31.8187 12.65C32.6062 14.475 33 16.425 33 18.5C33 20.575 32.6062 22.525 31.8187 24.35C31.0312 26.175 29.9625 27.7625 28.6125 29.1125C27.2625 30.4625 25.675 31.5312 23.85 32.3187C22.025 33.1062 20.075 33.5 18 33.5ZM18 30.5C21.325 30.5 24.1562 29.3313 26.4938 26.9938C28.8313 24.6562 30 21.825 30 18.5C30 15.175 28.8313 12.3438 26.4938 10.0063C24.1562 7.66875 21.325 6.5 18 6.5C14.675 6.5 11.8438 7.66875 9.50625 10.0063C7.16875 12.3438 6 15.175 6 18.5C6 21.825 7.16875 24.6562 9.50625 26.9938C11.8438 29.3313 14.675 30.5 18 30.5Z" fill="black" fill-opacity="0.6"/>
</g>
</svg>
