<svg width="28" height="28" viewBox="0 0 28 28" fill="none" xmlns="http://www.w3.org/2000/svg">
<g id="Icons/Shopping">
<mask id="mask0_1806_14802" style="mask-type:alpha" maskUnits="userSpaceOnUse" x="0" y="0" width="28" height="28">
<rect id="Bounding box" width="28" height="28" fill="#D9D9D9"/>
</mask>
<g mask="url(#mask0_1806_14802)">
<path id="shopping_cart" d="M8.16699 25.6667C7.52533 25.6667 6.97602 25.4382 6.51908 24.9813C6.06213 24.5243 5.83366 23.975 5.83366 23.3333C5.83366 22.6917 6.06213 22.1424 6.51908 21.6854C6.97602 21.2285 7.52533 21 8.16699 21C8.80866 21 9.35796 21.2285 9.81491 21.6854C10.2719 22.1424 10.5003 22.6917 10.5003 23.3333C10.5003 23.975 10.2719 24.5243 9.81491 24.9813C9.35796 25.4382 8.80866 25.6667 8.16699 25.6667ZM19.8337 25.6667C19.192 25.6667 18.6427 25.4382 18.1857 24.9813C17.7288 24.5243 17.5003 23.975 17.5003 23.3333C17.5003 22.6917 17.7288 22.1424 18.1857 21.6854C18.6427 21.2285 19.192 21 19.8337 21C20.4753 21 21.0246 21.2285 21.4816 21.6854C21.9385 22.1424 22.167 22.6917 22.167 23.3333C22.167 23.975 21.9385 24.5243 21.4816 24.9813C21.0246 25.4382 20.4753 25.6667 19.8337 25.6667ZM6.06699 4.66668H23.2753C23.7225 4.66668 24.0628 4.86598 24.2962 5.26459C24.5295 5.6632 24.5392 6.06668 24.3253 6.47501L20.1837 13.9417C19.9698 14.3306 19.683 14.632 19.3232 14.8458C18.9635 15.0597 18.5698 15.1667 18.142 15.1667H9.45033L8.16699 17.5H22.167V19.8333H8.16699C7.29199 19.8333 6.63088 19.4493 6.18366 18.6813C5.73644 17.9132 5.71699 17.15 6.12533 16.3917L7.70033 13.5333L3.50033 4.66668H1.16699V2.33334H4.95866L6.06699 4.66668Z" fill="black"/>
</g>
</g>
</svg>
