<svg width="42" height="43" viewBox="0 0 42 43" fill="none" xmlns="http://www.w3.org/2000/svg">
<g id="youtube 1">
<rect y="0.989258" width="42" height="42" rx="21" fill="#666666"/>
<path id="Vector" d="M33.6926 15.5521C33.3879 14.398 32.4902 13.4891 31.3504 13.1806C29.2844 12.6201 21.0001 12.6201 21.0001 12.6201C21.0001 12.6201 12.7157 12.6201 10.6497 13.1806C9.50988 13.4891 8.61217 14.398 8.30749 15.5521C7.75391 17.6439 7.75391 22.0083 7.75391 22.0083C7.75391 22.0083 7.75391 26.3727 8.30749 28.4645C8.61217 29.6186 9.50988 30.4896 10.6497 30.7981C12.7157 31.3586 21.0001 31.3586 21.0001 31.3586C21.0001 31.3586 29.2844 31.3586 31.3504 30.7981C32.4902 30.4896 33.3879 29.6186 33.6926 28.4645C34.2462 26.3727 34.2462 22.0083 34.2462 22.0083C34.2462 22.0083 34.2462 17.6439 33.6926 15.5521ZM18.2906 25.9708V18.0457L25.2147 22.0084L18.2906 25.9708Z" fill="white"/>
</g>
</svg>
